<svg xmlns="http://www.w3.org/2000/svg" xmlns:xlink="http://www.w3.org/1999/xlink" width="40" zoomAndPan="magnify" viewBox="0 0 30 30.000001" height="40" preserveAspectRatio="xMidYMid meet" version="1.0"><defs><g/><clipPath id="96b1313a7c"><path d="M 1 0.433594 L 28.972656 0.433594 L 28.972656 28.488281 L 1 28.488281 Z M 1 0.433594 " clip-rule="nonzero"/></clipPath><clipPath id="b546bb053e"><path d="M 2.480469 0.542969 L 27.519531 0.542969 C 28.320312 0.542969 28.972656 1.195312 28.972656 1.996094 L 28.972656 27.035156 C 28.972656 27.839844 28.320312 28.488281 27.519531 28.488281 L 2.480469 28.488281 C 1.679688 28.488281 1.027344 27.839844 1.027344 27.035156 L 1.027344 1.996094 C 1.027344 1.195312 1.679688 0.542969 2.480469 0.542969 Z M 2.480469 0.542969 " clip-rule="nonzero"/></clipPath><clipPath id="454abf52f4"><path d="M 3.386719 2.902344 L 25.507812 2.902344 L 25.507812 25.023438 L 3.386719 25.023438 Z M 3.386719 2.902344 " clip-rule="nonzero"/></clipPath><clipPath id="494c983b41"><path d="M 14.445312 2.902344 C 20.554688 2.902344 25.507812 7.855469 25.507812 13.964844 C 25.507812 20.070312 20.554688 25.023438 14.445312 25.023438 C 8.339844 25.023438 3.386719 20.070312 3.386719 13.964844 C 3.386719 7.855469 8.339844 2.902344 14.445312 2.902344 Z M 14.445312 2.902344 " clip-rule="nonzero"/></clipPath><clipPath id="8c6ec87a41"><path d="M 4.019531 3.535156 L 24.875 3.535156 L 24.875 24.390625 L 4.019531 24.390625 Z M 4.019531 3.535156 " clip-rule="nonzero"/></clipPath><clipPath id="ab5d542362"><path d="M 14.445312 3.535156 L 17.890625 5.648438 L 21.820312 6.589844 L 22.761719 10.519531 L 24.875 13.964844 L 22.761719 17.40625 L 21.820312 21.335938 L 17.890625 22.277344 L 14.445312 24.390625 L 11.003906 22.277344 L 7.074219 21.335938 L 6.132812 17.40625 L 4.019531 13.964844 L 6.132812 10.519531 L 7.074219 6.589844 L 11.003906 5.648438 Z M 14.445312 3.535156 " clip-rule="nonzero"/></clipPath></defs><g clip-path="url(#96b1313a7c)"><g clip-path="url(#b546bb053e)"><path fill="#231f21" d="M 1.027344 0.542969 L 28.972656 0.542969 L 28.972656 28.488281 L 1.027344 28.488281 Z M 1.027344 0.542969 " fill-opacity="1" fill-rule="nonzero"/></g></g><g clip-path="url(#454abf52f4)"><g clip-path="url(#494c983b41)"><path fill="#231f21" d="M 3.386719 2.902344 L 25.507812 2.902344 L 25.507812 25.023438 L 3.386719 25.023438 Z M 3.386719 2.902344 " fill-opacity="1" fill-rule="nonzero"/></g></g><g clip-path="url(#8c6ec87a41)"><g clip-path="url(#ab5d542362)"><path fill="#bb3330" d="M 4.019531 3.535156 L 24.875 3.535156 L 24.875 24.390625 L 4.019531 24.390625 Z M 4.019531 3.535156 " fill-opacity="1" fill-rule="nonzero"/></g></g><g fill="#efe6dd" fill-opacity="1"><g transform="translate(11.19001, 19.377912)"><g><path d="M 5.53125 -8.5625 C 6.101562 -8.5625 6.582031 -8.519531 6.96875 -8.4375 C 7.351562 -8.363281 7.738281 -8.226562 8.125 -8.03125 C 8.1875 -7.988281 8.222656 -7.953125 8.234375 -7.921875 C 8.242188 -7.898438 8.253906 -7.835938 8.265625 -7.734375 L 8.4375 -6.125 C 8.4375 -6.101562 8.410156 -6.085938 8.359375 -6.078125 C 8.304688 -6.078125 8.273438 -6.085938 8.265625 -6.109375 C 7.859375 -7.609375 6.9375 -8.359375 5.5 -8.359375 C 4.738281 -8.359375 4.070312 -8.191406 3.5 -7.859375 C 2.925781 -7.535156 2.484375 -7.0625 2.171875 -6.4375 C 1.859375 -5.820312 1.703125 -5.109375 1.703125 -4.296875 C 1.703125 -3.515625 1.875 -2.796875 2.21875 -2.140625 C 2.5625 -1.492188 3.023438 -0.984375 3.609375 -0.609375 C 4.203125 -0.234375 4.84375 -0.046875 5.53125 -0.046875 C 6.269531 -0.046875 6.867188 -0.222656 7.328125 -0.578125 C 7.785156 -0.941406 8.132812 -1.488281 8.375 -2.21875 C 8.375 -2.238281 8.394531 -2.25 8.4375 -2.25 C 8.507812 -2.25 8.546875 -2.234375 8.546875 -2.203125 L 8.40625 -0.734375 C 8.394531 -0.617188 8.378906 -0.546875 8.359375 -0.515625 C 8.347656 -0.492188 8.3125 -0.46875 8.25 -0.4375 C 7.789062 -0.207031 7.351562 -0.0507812 6.9375 0.03125 C 6.53125 0.125 6.0625 0.171875 5.53125 0.171875 C 4.59375 0.171875 3.753906 -0.0078125 3.015625 -0.375 C 2.273438 -0.75 1.695312 -1.273438 1.28125 -1.953125 C 0.863281 -2.628906 0.65625 -3.398438 0.65625 -4.265625 C 0.65625 -5.109375 0.863281 -5.851562 1.28125 -6.5 C 1.707031 -7.15625 2.289062 -7.660156 3.03125 -8.015625 C 3.769531 -8.378906 4.601562 -8.5625 5.53125 -8.5625 Z M 5.53125 -8.5625 "/></g></g></g><g fill="#efe6dd" fill-opacity="1"><g transform="translate(8.632512, 15.476549)"><g><path d="M 4.234375 -4.5 C 4.910156 -4.445312 5.453125 -4.222656 5.859375 -3.828125 C 6.273438 -3.429688 6.484375 -2.9375 6.484375 -2.34375 C 6.484375 -1.894531 6.375 -1.488281 6.15625 -1.125 C 5.9375 -0.757812 5.628906 -0.472656 5.234375 -0.265625 C 4.847656 -0.0546875 4.414062 0.046875 3.9375 0.046875 C 3.65625 0.046875 3.351562 0.0351562 3.03125 0.015625 C 2.90625 0.00390625 2.757812 -0.00390625 2.59375 -0.015625 C 2.4375 -0.0234375 2.257812 -0.03125 2.0625 -0.03125 L 1.203125 -0.015625 C 1.046875 -0.00390625 0.828125 0 0.546875 0 C 0.523438 0 0.515625 -0.0234375 0.515625 -0.078125 C 0.515625 -0.128906 0.523438 -0.15625 0.546875 -0.15625 C 0.859375 -0.15625 1.09375 -0.175781 1.25 -0.21875 C 1.40625 -0.269531 1.507812 -0.351562 1.5625 -0.46875 C 1.625 -0.59375 1.65625 -0.78125 1.65625 -1.03125 L 1.65625 -6.9375 C 1.65625 -7.195312 1.628906 -7.382812 1.578125 -7.5 C 1.523438 -7.625 1.421875 -7.707031 1.265625 -7.75 C 1.117188 -7.800781 0.890625 -7.828125 0.578125 -7.828125 C 0.546875 -7.828125 0.53125 -7.851562 0.53125 -7.90625 C 0.53125 -7.957031 0.546875 -7.984375 0.578125 -7.984375 L 1.203125 -7.96875 C 1.554688 -7.945312 1.84375 -7.9375 2.0625 -7.9375 C 2.21875 -7.9375 2.359375 -7.941406 2.484375 -7.953125 C 2.617188 -7.960938 2.734375 -7.972656 2.828125 -7.984375 C 3.097656 -8.003906 3.347656 -8.015625 3.578125 -8.015625 C 4.285156 -8.015625 4.816406 -7.859375 5.171875 -7.546875 C 5.535156 -7.234375 5.71875 -6.828125 5.71875 -6.328125 C 5.71875 -5.921875 5.582031 -5.554688 5.3125 -5.234375 C 5.050781 -4.921875 4.691406 -4.675781 4.234375 -4.5 Z M 3.3125 -7.828125 C 3.082031 -7.828125 2.910156 -7.804688 2.796875 -7.765625 C 2.691406 -7.722656 2.613281 -7.640625 2.5625 -7.515625 C 2.507812 -7.398438 2.484375 -7.203125 2.484375 -6.921875 L 2.484375 -4.5 L 3.0625 -4.484375 C 3.6875 -4.484375 4.144531 -4.640625 4.4375 -4.953125 C 4.738281 -5.273438 4.890625 -5.703125 4.890625 -6.234375 C 4.890625 -6.703125 4.757812 -7.082031 4.5 -7.375 C 4.238281 -7.675781 3.84375 -7.828125 3.3125 -7.828125 Z M 3.75 -0.171875 C 4.375 -0.171875 4.835938 -0.332031 5.140625 -0.65625 C 5.441406 -0.976562 5.59375 -1.4375 5.59375 -2.03125 C 5.59375 -2.675781 5.398438 -3.195312 5.015625 -3.59375 C 4.640625 -4 4.117188 -4.207031 3.453125 -4.21875 C 3.179688 -4.21875 2.859375 -4.207031 2.484375 -4.1875 L 2.484375 -1.03125 C 2.484375 -0.8125 2.515625 -0.640625 2.578125 -0.515625 C 2.648438 -0.398438 2.773438 -0.3125 2.953125 -0.25 C 3.140625 -0.195312 3.40625 -0.171875 3.75 -0.171875 Z M 3.75 -0.171875 "/></g></g></g></svg>