<svg xmlns="http://www.w3.org/2000/svg" xmlns:xlink="http://www.w3.org/1999/xlink" width="55" zoomAndPan="magnify" viewBox="0 0 41.25 41.250001" height="55" preserveAspectRatio="xMidYMid meet" version="1.0"><defs><g/><clipPath id="a2d7303144"><path d="M 0.605469 0.605469 L 39.753906 0.605469 L 39.753906 39.753906 L 0.605469 39.753906 Z M 0.605469 0.605469 " clip-rule="nonzero"/></clipPath><clipPath id="5e0ce97485"><path d="M 2.785156 0.757812 L 37.726562 0.757812 C 38.847656 0.757812 39.753906 1.667969 39.753906 2.785156 L 39.753906 37.726562 C 39.753906 38.847656 38.847656 39.753906 37.726562 39.753906 L 2.785156 39.753906 C 1.667969 39.753906 0.757812 38.847656 0.757812 37.726562 L 0.757812 2.785156 C 0.757812 1.667969 1.667969 0.757812 2.785156 0.757812 Z M 2.785156 0.757812 " clip-rule="nonzero"/></clipPath><clipPath id="81fe0910fd"><path d="M 4.050781 4.050781 L 34.917969 4.050781 L 34.917969 34.917969 L 4.050781 34.917969 Z M 4.050781 4.050781 " clip-rule="nonzero"/></clipPath><clipPath id="729f4c4fa4"><path d="M 19.484375 4.050781 C 28.007812 4.050781 34.917969 10.960938 34.917969 19.484375 C 34.917969 28.007812 28.007812 34.917969 19.484375 34.917969 C 10.960938 34.917969 4.050781 28.007812 4.050781 19.484375 C 4.050781 10.960938 10.960938 4.050781 19.484375 4.050781 Z M 19.484375 4.050781 " clip-rule="nonzero"/></clipPath><clipPath id="e32355c628"><path d="M 4.933594 4.933594 L 34.039062 4.933594 L 34.039062 34.039062 L 4.933594 34.039062 Z M 4.933594 4.933594 " clip-rule="nonzero"/></clipPath><clipPath id="80d5f673cd"><path d="M 19.484375 4.933594 L 24.292969 7.882812 L 29.777344 9.195312 L 31.089844 14.679688 L 34.039062 19.484375 L 31.089844 24.292969 L 29.777344 29.777344 L 24.292969 31.089844 L 19.484375 34.039062 L 14.679688 31.089844 L 9.195312 29.777344 L 7.882812 24.292969 L 4.933594 19.484375 L 7.882812 14.679688 L 9.195312 9.195312 L 14.679688 7.882812 Z M 19.484375 4.933594 " clip-rule="nonzero"/></clipPath></defs><g clip-path="url(#a2d7303144)"><g clip-path="url(#5e0ce97485)"><path fill="#231f21" d="M 0.757812 0.757812 L 39.753906 0.757812 L 39.753906 39.753906 L 0.757812 39.753906 Z M 0.757812 0.757812 " fill-opacity="1" fill-rule="nonzero"/></g></g><g clip-path="url(#81fe0910fd)"><g clip-path="url(#729f4c4fa4)"><path fill="#231f21" d="M 4.050781 4.050781 L 34.917969 4.050781 L 34.917969 34.917969 L 4.050781 34.917969 Z M 4.050781 4.050781 " fill-opacity="1" fill-rule="nonzero"/></g></g><g clip-path="url(#e32355c628)"><g clip-path="url(#80d5f673cd)"><path fill="#bb3330" d="M 4.933594 4.933594 L 34.039062 4.933594 L 34.039062 34.039062 L 4.933594 34.039062 Z M 4.933594 4.933594 " fill-opacity="1" fill-rule="nonzero"/></g></g><g fill="#efe6dd" fill-opacity="1"><g transform="translate(14.940005, 27.041125)"><g><path d="M 7.71875 -11.953125 C 8.507812 -11.953125 9.175781 -11.894531 9.71875 -11.78125 C 10.257812 -11.664062 10.796875 -11.472656 11.328125 -11.203125 C 11.421875 -11.148438 11.472656 -11.101562 11.484375 -11.0625 C 11.492188 -11.03125 11.515625 -10.941406 11.546875 -10.796875 L 11.765625 -8.546875 C 11.765625 -8.515625 11.726562 -8.492188 11.65625 -8.484375 C 11.59375 -8.484375 11.554688 -8.5 11.546875 -8.53125 C 10.960938 -10.625 9.671875 -11.671875 7.671875 -11.671875 C 6.617188 -11.671875 5.691406 -11.4375 4.890625 -10.96875 C 4.085938 -10.507812 3.46875 -9.847656 3.03125 -8.984375 C 2.59375 -8.128906 2.375 -7.132812 2.375 -6 C 2.375 -4.90625 2.613281 -3.90625 3.09375 -3 C 3.570312 -2.09375 4.222656 -1.375 5.046875 -0.84375 C 5.867188 -0.320312 6.757812 -0.0625 7.71875 -0.0625 C 8.75 -0.0625 9.582031 -0.3125 10.21875 -0.8125 C 10.863281 -1.3125 11.351562 -2.070312 11.6875 -3.09375 C 11.6875 -3.125 11.71875 -3.140625 11.78125 -3.140625 C 11.875 -3.140625 11.921875 -3.117188 11.921875 -3.078125 L 11.734375 -1.015625 C 11.710938 -0.867188 11.691406 -0.773438 11.671875 -0.734375 C 11.648438 -0.691406 11.597656 -0.644531 11.515625 -0.59375 C 10.867188 -0.28125 10.257812 -0.0625 9.6875 0.0625 C 9.113281 0.1875 8.457031 0.25 7.71875 0.25 C 6.40625 0.25 5.234375 -0.0078125 4.203125 -0.53125 C 3.171875 -1.050781 2.363281 -1.78125 1.78125 -2.71875 C 1.207031 -3.664062 0.921875 -4.742188 0.921875 -5.953125 C 0.921875 -7.128906 1.210938 -8.171875 1.796875 -9.078125 C 2.390625 -9.992188 3.203125 -10.703125 4.234375 -11.203125 C 5.273438 -11.703125 6.4375 -11.953125 7.71875 -11.953125 Z M 7.71875 -11.953125 "/></g></g></g><g fill="#efe6dd" fill-opacity="1"><g transform="translate(11.371114, 21.596924)"><g><path d="M 5.90625 -6.265625 C 6.851562 -6.191406 7.613281 -5.878906 8.1875 -5.328125 C 8.757812 -4.773438 9.046875 -4.09375 9.046875 -3.28125 C 9.046875 -2.644531 8.890625 -2.070312 8.578125 -1.5625 C 8.273438 -1.050781 7.851562 -0.648438 7.3125 -0.359375 C 6.769531 -0.0664062 6.164062 0.078125 5.5 0.078125 C 5.113281 0.078125 4.6875 0.0546875 4.21875 0.015625 C 4.050781 0.00390625 3.851562 -0.00390625 3.625 -0.015625 C 3.40625 -0.0234375 3.160156 -0.03125 2.890625 -0.03125 L 1.671875 -0.015625 C 1.460938 -0.00390625 1.160156 0 0.765625 0 C 0.742188 0 0.734375 -0.0351562 0.734375 -0.109375 C 0.734375 -0.179688 0.742188 -0.21875 0.765625 -0.21875 C 1.203125 -0.21875 1.523438 -0.25 1.734375 -0.3125 C 1.953125 -0.375 2.101562 -0.488281 2.1875 -0.65625 C 2.269531 -0.820312 2.3125 -1.082031 2.3125 -1.4375 L 2.3125 -9.6875 C 2.3125 -10.039062 2.269531 -10.300781 2.1875 -10.46875 C 2.113281 -10.632812 1.972656 -10.75 1.765625 -10.8125 C 1.554688 -10.882812 1.234375 -10.921875 0.796875 -10.921875 C 0.765625 -10.921875 0.75 -10.953125 0.75 -11.015625 C 0.75 -11.085938 0.765625 -11.125 0.796875 -11.125 L 1.671875 -11.109375 C 2.171875 -11.085938 2.578125 -11.078125 2.890625 -11.078125 C 3.097656 -11.078125 3.296875 -11.082031 3.484375 -11.09375 C 3.671875 -11.101562 3.828125 -11.113281 3.953125 -11.125 C 4.316406 -11.164062 4.660156 -11.1875 4.984375 -11.1875 C 5.984375 -11.1875 6.734375 -10.96875 7.234375 -10.53125 C 7.734375 -10.101562 7.984375 -9.535156 7.984375 -8.828125 C 7.984375 -8.265625 7.796875 -7.757812 7.421875 -7.3125 C 7.054688 -6.863281 6.550781 -6.515625 5.90625 -6.265625 Z M 4.609375 -10.921875 C 4.304688 -10.921875 4.078125 -10.894531 3.921875 -10.84375 C 3.765625 -10.789062 3.648438 -10.675781 3.578125 -10.5 C 3.503906 -10.320312 3.46875 -10.039062 3.46875 -9.65625 L 3.46875 -6.265625 L 4.28125 -6.25 C 5.144531 -6.25 5.785156 -6.472656 6.203125 -6.921875 C 6.617188 -7.367188 6.828125 -7.957031 6.828125 -8.6875 C 6.828125 -9.351562 6.644531 -9.890625 6.28125 -10.296875 C 5.914062 -10.710938 5.359375 -10.921875 4.609375 -10.921875 Z M 5.234375 -0.25 C 6.097656 -0.25 6.738281 -0.46875 7.15625 -0.90625 C 7.582031 -1.351562 7.796875 -1.992188 7.796875 -2.828125 C 7.796875 -3.734375 7.53125 -4.460938 7 -5.015625 C 6.476562 -5.578125 5.753906 -5.863281 4.828125 -5.875 C 4.441406 -5.882812 3.988281 -5.875 3.46875 -5.84375 L 3.46875 -1.4375 C 3.46875 -1.132812 3.507812 -0.898438 3.59375 -0.734375 C 3.6875 -0.566406 3.859375 -0.441406 4.109375 -0.359375 C 4.367188 -0.285156 4.742188 -0.25 5.234375 -0.25 Z M 5.234375 -0.25 "/></g></g></g></svg>