<!DOCTYPE svg PUBLIC "-//W3C//DTD SVG 1.1//EN" "http://www.w3.org/Graphics/SVG/1.1/DTD/svg11.dtd">
<!-- Uploaded to: SVG Repo, www.svgrepo.com, Transformed by: SVG Repo Mixer Tools -->
<svg fill="#000000" version="1.1" id="Capa_1" xmlns="http://www.w3.org/2000/svg" xmlns:xlink="http://www.w3.org/1999/xlink" width="800px" height="800px" viewBox="0 0 387.022 387.022" xml:space="preserve">
<g id="SVGRepo_bgCarrier" stroke-width="0"/>
<g id="SVGRepo_tracerCarrier" stroke-linecap="round" stroke-linejoin="round"/>
<g id="SVGRepo_iconCarrier"> <g> <path d="M263.319,251.242c3.061-30.6,9.792-67.933-3.06-96.696c-1.225-2.448-3.061-3.06-4.896-3.06 c0-1.224-0.611-2.448-1.836-3.672c-6.731-8.568-26.315-6.12-36.107-6.732c-17.137-0.612-34.885-0.612-52.021-0.612 c1.836-23.256,7.956-47.736,3.06-70.38c0.612,0,0.612,0,1.224,0c6.12-0.612,6.12-11.628,0-12.852 c-48.348-6.732-100.98-3.06-149.94-1.224c-1.224,0-2.448,0.612-3.06,1.224c-1.224,0-2.448,0.612-3.06,2.448 c-20.808,37.332-12.24,84.456-9.792,124.848c3.672,63.649-6.732,126.684,2.448,191.556c0.612,3.672,4.896,6.12,7.956,6.12 c80.172,3.061,160.344-6.731,240.517,1.836c3.672,0.612,6.119-1.836,7.344-4.283c2.448-1.225,4.896-3.673,4.284-7.345 C255.363,332.026,259.035,291.634,263.319,251.242z M222.315,163.114c-1.224,7.956-2.448,16.524-3.672,25.704 c-12.24-0.612-25.705,0-37.944-1.224c-44.064-4.284-88.128-6.12-132.804-3.672c0-7.344,0.612-14.688,0.612-22.032 C106.035,165.562,164.787,167.398,222.315,163.114z M46.671,114.766c20.808,1.836,41.616,2.448,62.424,3.672 c9.18,0.612,29.376,4.284,41.616,1.224c-1.224,9.792-2.448,18.972-2.448,28.764l0,0c-8.568,0-16.524,0-25.092,0 c-15.912,0-31.212-0.612-47.124-1.224c-7.956,0-15.3-0.612-23.256-1.224C44.223,145.978,46.059,123.946,46.671,114.766z M47.895,197.387c41.004,2.447,82.62,2.447,123.624,6.119c14.076,1.225,30.6,4.284,45.901,3.672c0,5.509-0.612,11.017-0.612,15.912 c-56.917,0-114.444,0-170.749,4.284C46.671,217.582,47.283,207.178,47.895,197.387z M45.447,239.002 c26.928,1.836,54.468,1.225,81.396,1.225c15.912,0,31.212,0,47.124-0.612c3.672,0,29.376-1.836,43.453-2.448 c0,1.225,0,2.448,0,3.672c0.611,9.181,1.836,18.36,2.447,27.54c-10.403-3.06-26.316-1.224-31.212-1.224 c-47.736,0-95.472,3.06-143.208,4.896C44.835,261.034,44.835,250.019,45.447,239.002z M146.427,318.562 c-33.048-3.061-65.484,0-98.532-1.225c0-11.628-1.224-22.644-1.836-34.271c40.392,3.06,81.396,0.611,121.788,0.611 c9.18,0,18.36,0,27.541,0c6.12,0,12.24,0,18.359,0.612c8.568,0.612,6.12,3.061,4.284-1.836c0.612,1.836,1.836,2.448,3.672,3.061 c0.612,11.016,0.612,21.42-1.224,31.823C217.42,330.19,155.607,319.174,146.427,318.562z"/> <path d="M257.199,117.214c-1.224-1.224-3.06-1.836-5.508-1.836c0.612-1.836,0.612-4.284,0-6.12 c-1.836-4.284-6.12-7.956-9.792-11.628c-5.508-5.508-10.404-11.628-15.3-17.748c-9.18-11.016-18.972-21.42-30.6-29.376 c-4.285-3.06-10.405,0-11.629,4.896c-6.12,19.584-6.732,44.676,0,64.26l0,0l0,0c0,1.224,0,1.836,1.224,2.448 c0,0,0,0.612-0.612,0.612c0.612,1.836,1.836,3.672,3.672,3.672c11.017,3.06,23.256,3.672,34.273,4.284 c8.567,0.612,26.315,4.896,33.66-0.612C262.096,127.006,262.096,120.886,257.199,117.214z"/> <path d="M384.495,109.258c0-3.06-2.447-6.732-5.508-7.344c-27.54-4.284-55.08-1.224-82.62-3.672c0.612-6.732,0-13.464,0-20.808 c0.612-1.836,1.225-3.672,0.612-5.508c-3.06-18.972-3.672-37.944-3.672-56.916c0-3.06-2.448-6.732-5.508-7.344 C238.84-3.35,190.491,8.278,141.531,7.054c-4.284,0-7.956,3.672-7.956,7.956c0.612,8.568,1.836,15.912,4.284,24.48v0.612 c-0.612,3.06,1.224,6.732,5.508,6.732c28.764-2.448,71.604-11.016,95.473,8.568c13.464,11.016,20.195,19.584,32.436,23.868 c7.344,28.152,9.18,56.916,9.18,85.68c-3.06-1.224-5.508-4.284-8.567-6.12c-1.225-0.612-1.836,0.612-1.225,1.224 c1.836,3.672,5.509,6.732,9.792,7.344c-0.611,51.409-9.18,102.816-8.567,154.836c0,4.284,3.06,6.731,7.344,7.344 c34.272,2.448,67.932,3.672,102.204-1.224c3.06-0.612,6.12-4.284,5.508-7.345C383.884,250.019,390.004,179.638,384.495,109.258z"/> <path d="M380.212,73.762c-14.688-25.092-40.393-44.064-63.648-59.976c-1.836-1.224-4.284-1.836-6.12-1.224 c-1.836-2.448-7.344-2.448-7.344,1.224c-3.672,22.644-6.732,47.736,0.612,69.768c1.224,3.06,3.672,5.508,7.344,5.508 c21.42-1.224,43.452,0,64.872-3.672C380.212,84.166,382.048,77.434,380.212,73.762z"/> </g> </g>
</svg>