<svg xmlns="http://www.w3.org/2000/svg" xmlns:xlink="http://www.w3.org/1999/xlink" width="250" zoomAndPan="magnify" viewBox="0 0 187.5 74.999997" height="100" preserveAspectRatio="xMidYMid meet" version="1.0"><defs><g/><clipPath id="14e74a75a8"><path d="M 62.390625 6.386719 L 124.613281 6.386719 L 124.613281 68.613281 L 62.390625 68.613281 Z M 62.390625 6.386719 " clip-rule="nonzero"/></clipPath><clipPath id="8f9b7c7931"><path d="M 79.59375 6.386719 L 107.40625 6.386719 C 111.972656 6.386719 116.347656 8.199219 119.574219 11.425781 C 122.800781 14.652344 124.613281 19.03125 124.613281 23.59375 L 124.613281 51.40625 C 124.613281 55.96875 122.800781 60.347656 119.574219 63.574219 C 116.347656 66.800781 111.972656 68.613281 107.40625 68.613281 L 79.59375 68.613281 C 75.03125 68.613281 70.65625 66.800781 67.429688 63.574219 C 64.203125 60.347656 62.390625 55.96875 62.390625 51.40625 L 62.390625 23.59375 C 62.390625 19.03125 64.203125 14.652344 67.429688 11.425781 C 70.65625 8.199219 75.03125 6.386719 79.59375 6.386719 Z M 79.59375 6.386719 " clip-rule="nonzero"/></clipPath><clipPath id="8b81544741"><path d="M 64.164062 8.164062 L 122.835938 8.164062 L 122.835938 66.835938 L 64.164062 66.835938 Z M 64.164062 8.164062 " clip-rule="nonzero"/></clipPath><clipPath id="1a0953f982"><path d="M 93.5 8.164062 L 103.1875 14.109375 L 114.242188 16.757812 L 116.890625 27.8125 L 122.835938 37.5 L 116.890625 47.1875 L 114.242188 58.242188 L 103.1875 60.890625 L 93.5 66.835938 L 83.8125 60.890625 L 72.757812 58.242188 L 70.113281 47.1875 L 64.164062 37.5 L 70.113281 27.8125 L 72.757812 16.757812 L 83.8125 14.109375 Z M 93.5 8.164062 " clip-rule="nonzero"/></clipPath></defs><g clip-path="url(#14e74a75a8)"><g clip-path="url(#8f9b7c7931)"><path fill="#231f21" d="M 62.390625 6.386719 L 124.613281 6.386719 L 124.613281 68.613281 L 62.390625 68.613281 Z M 62.390625 6.386719 " fill-opacity="1" fill-rule="nonzero"/></g></g><g clip-path="url(#8b81544741)"><g clip-path="url(#1a0953f982)"><path fill="#bb3330" d="M 64.164062 8.164062 L 122.835938 8.164062 L 122.835938 66.835938 L 64.164062 66.835938 Z M 64.164062 8.164062 " fill-opacity="1" fill-rule="nonzero"/></g></g><g fill="#efe6dd" fill-opacity="1"><g transform="translate(84.338262, 52.730889)"><g><path d="M 15.578125 -24.09375 C 17.160156 -24.09375 18.492188 -23.976562 19.578125 -23.75 C 20.671875 -23.53125 21.757812 -23.140625 22.84375 -22.578125 C 23.019531 -22.484375 23.117188 -22.394531 23.140625 -22.3125 C 23.171875 -22.238281 23.210938 -22.050781 23.265625 -21.75 L 23.71875 -17.234375 C 23.71875 -17.160156 23.644531 -17.117188 23.5 -17.109375 C 23.363281 -17.097656 23.285156 -17.128906 23.265625 -17.203125 C 22.097656 -21.421875 19.492188 -23.53125 15.453125 -23.53125 C 13.335938 -23.53125 11.46875 -23.0625 9.84375 -22.125 C 8.226562 -21.1875 6.976562 -19.851562 6.09375 -18.125 C 5.21875 -16.394531 4.78125 -14.382812 4.78125 -12.09375 C 4.78125 -9.894531 5.265625 -7.878906 6.234375 -6.046875 C 7.203125 -4.210938 8.515625 -2.765625 10.171875 -1.703125 C 11.828125 -0.640625 13.628906 -0.109375 15.578125 -0.109375 C 17.648438 -0.109375 19.328125 -0.613281 20.609375 -1.625 C 21.898438 -2.632812 22.882812 -4.175781 23.5625 -6.25 C 23.5625 -6.300781 23.625 -6.328125 23.75 -6.328125 C 23.925781 -6.328125 24.015625 -6.289062 24.015625 -6.21875 L 23.640625 -2.046875 C 23.617188 -1.742188 23.582031 -1.550781 23.53125 -1.46875 C 23.476562 -1.394531 23.378906 -1.3125 23.234375 -1.21875 C 21.910156 -0.582031 20.675781 -0.140625 19.53125 0.109375 C 18.382812 0.367188 17.066406 0.5 15.578125 0.5 C 12.921875 0.5 10.550781 -0.0234375 8.46875 -1.078125 C 6.382812 -2.128906 4.757812 -3.601562 3.59375 -5.5 C 2.4375 -7.394531 1.859375 -9.566406 1.859375 -12.015625 C 1.859375 -14.390625 2.453125 -16.488281 3.640625 -18.3125 C 4.828125 -20.144531 6.460938 -21.566406 8.546875 -22.578125 C 10.628906 -23.585938 12.972656 -24.09375 15.578125 -24.09375 Z M 15.578125 -24.09375 "/></g></g></g><g fill="#efe6dd" fill-opacity="1"><g transform="translate(77.144138, 41.756534)"><g><path d="M 11.921875 -12.640625 C 13.804688 -12.492188 15.328125 -11.863281 16.484375 -10.75 C 17.648438 -9.632812 18.234375 -8.253906 18.234375 -6.609375 C 18.234375 -5.335938 17.921875 -4.1875 17.296875 -3.15625 C 16.679688 -2.125 15.828125 -1.316406 14.734375 -0.734375 C 13.648438 -0.148438 12.4375 0.140625 11.09375 0.140625 C 10.300781 0.140625 9.441406 0.101562 8.515625 0.03125 C 8.171875 0.0078125 7.769531 -0.0078125 7.3125 -0.03125 C 6.863281 -0.0625 6.363281 -0.078125 5.8125 -0.078125 L 3.375 -0.03125 C 2.945312 -0.0078125 2.335938 0 1.546875 0 C 1.492188 0 1.46875 -0.0703125 1.46875 -0.21875 C 1.46875 -0.363281 1.492188 -0.4375 1.546875 -0.4375 C 2.429688 -0.4375 3.085938 -0.5 3.515625 -0.625 C 3.953125 -0.757812 4.253906 -0.992188 4.421875 -1.328125 C 4.585938 -1.660156 4.671875 -2.1875 4.671875 -2.90625 L 4.671875 -19.53125 C 4.671875 -20.25 4.59375 -20.773438 4.4375 -21.109375 C 4.28125 -21.441406 3.988281 -21.675781 3.5625 -21.8125 C 3.144531 -21.945312 2.492188 -22.015625 1.609375 -22.015625 C 1.546875 -22.015625 1.515625 -22.082031 1.515625 -22.21875 C 1.515625 -22.363281 1.546875 -22.4375 1.609375 -22.4375 L 3.375 -22.40625 C 4.382812 -22.351562 5.195312 -22.328125 5.8125 -22.328125 C 6.25 -22.328125 6.648438 -22.335938 7.015625 -22.359375 C 7.390625 -22.390625 7.707031 -22.414062 7.96875 -22.4375 C 8.707031 -22.507812 9.398438 -22.546875 10.046875 -22.546875 C 12.054688 -22.546875 13.566406 -22.109375 14.578125 -21.234375 C 15.585938 -20.359375 16.09375 -19.21875 16.09375 -17.8125 C 16.09375 -16.664062 15.71875 -15.640625 14.96875 -14.734375 C 14.226562 -13.835938 13.210938 -13.140625 11.921875 -12.640625 Z M 9.296875 -22.015625 C 8.671875 -22.015625 8.203125 -21.957031 7.890625 -21.84375 C 7.585938 -21.738281 7.363281 -21.507812 7.21875 -21.15625 C 7.070312 -20.8125 7 -20.25 7 -19.46875 L 7 -12.640625 L 8.625 -12.609375 C 10.363281 -12.609375 11.648438 -13.054688 12.484375 -13.953125 C 13.328125 -14.847656 13.75 -16.035156 13.75 -17.515625 C 13.75 -18.859375 13.382812 -19.941406 12.65625 -20.765625 C 11.925781 -21.597656 10.804688 -22.015625 9.296875 -22.015625 Z M 10.5625 -0.5 C 12.300781 -0.5 13.597656 -0.945312 14.453125 -1.84375 C 15.304688 -2.75 15.734375 -4.035156 15.734375 -5.703125 C 15.734375 -7.523438 15.195312 -9 14.125 -10.125 C 13.0625 -11.25 11.597656 -11.820312 9.734375 -11.84375 C 8.960938 -11.875 8.050781 -11.851562 7 -11.78125 L 7 -2.90625 C 7 -2.28125 7.085938 -1.800781 7.265625 -1.46875 C 7.453125 -1.132812 7.800781 -0.890625 8.3125 -0.734375 C 8.820312 -0.578125 9.570312 -0.5 10.5625 -0.5 Z M 10.5625 -0.5 "/></g></g></g></svg>