<?xml version="1.0" encoding="iso-8859-1"?>
<!-- Uploaded to: SVG Repo, www.svgrepo.com, Generator: SVG Repo Mixer Tools -->
<!DOCTYPE svg PUBLIC "-//W3C//DTD SVG 1.1//EN" "http://www.w3.org/Graphics/SVG/1.1/DTD/svg11.dtd">
<svg fill="#000000" version="1.1" id="Capa_1" xmlns="http://www.w3.org/2000/svg" xmlns:xlink="http://www.w3.org/1999/xlink" 
	 width="800px" height="800px" viewBox="0 0 373.08 373.08"
	 xml:space="preserve">
<g>
	<path d="M277.705,94.079c-2.448-5.508-6.12-9.792-11.016-12.852c0-2.448-1.225-5.508-4.896-4.896c-1.224,0-2.448,0-4.284,0
		c-8.567-3.672-18.359-4.896-28.764-5.508c1.224-7.344-1.225-17.136-3.061-23.256c-4.896-18.36-15.911-37.944-34.884-45.288
		c-38.556-14.076-55.08,40.392-47.736,72.216c-22.644,1.224-64.872,7.344-49.572,23.256c0,2.448,1.836,4.896,4.284,5.508
		c0.612,0,1.224,0,1.836,0c-1.224,1.836-0.612,4.896,2.448,4.896c48.96,6.12,99.144-4.284,148.716-1.836
		c1.224,1.224,3.06,1.836,4.896,1.836c9.18-0.612,9.792-0.612,18.36-4.896C278.929,102.035,278.929,97.75,277.705,94.079z"/>
	<path d="M345.637,194.447c1.836-46.513,4.284-96.085-8.567-141.373c-12.24-44.064-43.452-42.228-82.62-35.496
		c-3.672,0.612-5.508,3.06-5.508,5.508c-11.017,6.12-12.24,15.912-1.837,27.54c6.732,7.344,17.748,12.852,26.316,17.748
		c21.42,11.016,17.748,34.884,18.36,56.916c0.611,42.228-1.225,82.621,1.224,124.848c1.224,20.809,4.284,49.572-10.404,66.708
		c-12.852,14.688-42.84,12.853-59.976,12.853c-29.376,0.611-57.528,1.224-86.904,2.447c-15.3,0.612-31.212-0.611-44.676-7.955
		c-22.644-12.24-15.3-58.141-14.688-79.561c1.224-48.96,1.836-98.532,7.956-146.88c1.836-12.852-0.612-31.212,20.808-33.048
		c3.672-0.612,7.956-1.836,10.404-4.896c6.12-6.12,7.956-13.464,7.956-21.42c3.672,0,4.896-5.508,1.836-7.344
		c-0.612,0-1.224,0-2.448-0.612c-1.224-2.448-4.284-3.672-6.732-3.06c-31.824-12.24-75.276-9.18-86.292,28.152
		c-6.732,22.644-3.06,49.572-1.224,72.828c2.448,30.6,4.896,59.977,4.284,90.576c-0.612,35.496-7.344,76.5-0.612,110.772
		c3.06,16.523,11.016,31.824,28.152,37.332c21.42,6.731,44.064,3.672,66.096,1.836c39.78-3.061,80.784,0,120.564,2.448
		c45.899,3.06,87.516,8.567,94.859-47.124c2.448-20.196-0.612-41.004,0-61.2C343.189,240.959,345.025,217.703,345.637,194.447z
		 M271.585,37.163c2.448,0,4.896,0.612,7.344,1.224c0,1.224,0,2.448,0.612,3.672C277.093,40.223,274.645,38.386,271.585,37.163z
		 M52.489,48.178c-2.448,3.06-4.284,6.732-5.508,9.792c0-1.224,0.612-1.836,0.612-3.06c1.836-6.12,6.12-10.404,11.628-12.852
		c0,0.612,0,1.836,0.612,2.448C56.773,44.506,53.713,45.73,52.489,48.178z M183.457,345.611c-4.896,0-9.792,0-14.688,0
		c8.568-0.612,17.136-1.225,25.092-1.225c3.06,0,6.119,0,9.18,0.612C196.921,344.999,190.189,345.611,183.457,345.611z
		 M272.809,357.851c3.061,0,6.12-0.611,9.181-1.224h0.611l0,0c0.612,0,1.225,0,1.836,0c0,0,0,0,0.612,0c0,0.612,0,1.224,0,1.836
		C280.765,358.463,277.093,358.463,272.809,357.851z M329.725,194.447c0,3.672-0.611,6.731-0.611,10.403
		c-0.612,0-0.612-0.611-1.225-0.611c0.612-6.12,0.612-11.628,1.225-17.749l0.611,0.612
		C330.337,190.163,330.337,191.999,329.725,194.447z"/>
	<path d="M256.285,140.59c-52.021,7.956-102.816,1.836-155.448,3.672c-9.792,0.612-9.18,14.076,0,14.688
		c52.02,3.06,108.324,9.18,159.12-3.672C270.361,152.831,266.077,138.754,256.285,140.59z"/>
	<path d="M258.733,195.059c-20.809-6.731-48.349,0-69.769,1.836c-27.54,2.448-55.08-0.611-82.008,1.225
		c-4.896,0.611-7.344,6.731-2.448,9.792c21.42,12.24,52.02,7.344,75.888,6.12c25.704-1.836,53.244-1.225,78.336-5.508
		C265.465,206.687,264.241,196.895,258.733,195.059z"/>
	<path d="M266.077,250.139c-51.408-10.403-109.548-1.224-160.956,2.448c-4.896,0.612-5.508,6.732-1.224,8.568
		c28.152,11.628,60.588,2.447,89.964,1.836c23.867-0.612,48.96,4.896,72.216,0.611C272.809,262.991,272.809,251.363,266.077,250.139
		z"/>
</g>
</svg>